<svg height="512pt" viewBox="0 0 512.00093 512" width="512pt" xmlns="http://www.w3.org/2000/svg"><path d="m500.757812 261.621094c0 138.28125-112.097656 250.378906-250.378906 250.378906s-250.378906-112.097656-250.378906-250.378906 112.097656-250.378906 250.378906-250.378906 250.378906 112.097656 250.378906 250.378906zm0 0" fill="#ea5569"/><path d="m289.941406 245.246094-32.777344 41.210937c-24.878906 31.28125-53.234374 59.636719-84.515624 84.515625l-40.726563 32.390625c-7.546875 6.003907-18.773437 2.515625-21.589844-6.710937l-3.339843-10.960938c-11.613282-38.074218-18.855469-77.339844-21.664063-117.046875-1.632813-23.074219-3.390625-45.417969-4.546875-59.699219-.667969-8.269531 6.117188-15.21875 14.398438-14.75 11.898437.671876 29.386718 1.648438 48.246093 2.667969 47.730469 2.578125 94.890625 11.636719 140.183594 26.917969 8.980469 3.027344 12.230469 14.046875 6.332031 21.464844zm-39.5625-234.003906c-23.023437 0-45.3125 3.125-66.488281 8.941406l16.410156 20.632812c24.878907 31.28125 53.234375 59.636719 84.515625 84.515625l41.210938 32.777344c7.417968 5.898437 18.4375 2.648437 21.464844-6.332031 11.960937-35.445313 20.089843-72.042969 24.300781-109.160156-35.960938-19.980469-77.355469-31.375-121.414063-31.375zm0 0" fill="#c92e43"/><path d="m477.683594 12.957031c3.578125 14.433594 8.851562 35.632813 14.578125 58.488281 14.496093 57.839844 21.058593 117.382813 19.519531 176.992188-.304688 11.816406-12.246094 19.746094-23.253906 15.445312l-61.183594-23.894531c-46.445312-18.140625-90.675781-41.496093-131.847656-69.625l-53.59375-36.617187c-9.9375-6.789063-9.910156-21.453125.050781-28.203125l11.835937-8.019531c41.105469-27.855469 85.242188-50.941407 131.53125-68.902344 26.898438-10.4375 52.886719-20.761719 69.480469-27.394532 9.609375-3.839843 20.390625 1.691407 22.882813 11.730469zm-226.15625 211.4375c-25.320313-51.097656-57.464844-98.523437-95.550782-140.964843-12.523437-13.953126-24.273437-27.078126-33.324218-37.203126-72.578125 42.003907-119.414063 116.605469-122.4375 204.910157l33.535156 3.820312c47.378906 5.398438 95.214844 5.398438 142.59375 0l62.414062-7.117187c11.230469-1.277344 17.785157-13.316406 12.769532-23.445313zm136.769531 61.808594c-17.816406 1.441406-45.691406 3.640625-74.472656 5.675781-49.53125 3.5-98.511719 12.535156-146.007813 27.019532l-13.671875 4.171874c-11.511719 3.511719-15.863281 17.511719-8.375 26.929688l40.40625 50.800781c31.035157 39.023438 66.40625 74.394531 105.429688 105.429688l2.472656 1.96875c38.738281-7.121094 66.726563-19.289063 94.863281-38.019531 7.652344-34.792969 12.496094-70.179688 14.425782-105.828126 1.269531-23.527343 2.488281-45.339843 3.328124-60.1875.582032-10.328124-8.085937-18.792968-18.398437-17.960937zm0 0" fill="#fdf061"/><path d="m325.019531 132.671875c.082031-24.179687 33.402344-44.738281 100.042969-85.855469 21.632812-13.347656 38.90625-24.003906 53.148438-31.71875 3.5625 14.34375 8.597656 34.589844 14.050781 56.347656 14.46875 57.734376 21.03125 117.164063 19.523437 176.660157-17.855468-6.480469-37.683594-14.96875-59.265625-24.21875-59.75-25.609375-127.625-53.117188-127.5-91.214844zm-169.042969-49.242187c-12.523437-13.953126-21.464843-23.9375-30.511718-34.0625-.039063.023437-30.921875 32.382812-37.320313 43.246093-37.992187 64.53125-56.988281 96.796875-46.261719 117.28125 16.90625 32.277344 86.59375 25.226563 148.558594 20.199219 22.386719-1.816406 42.945313-3.492188 60.9375-5.984375-25.292968-50.988281-57.386718-98.316406-95.402344-140.679687zm69.527344 290.070312c-11.363281 36.367188 45.371094 82.679688 94.90625 124.777344 1.105469.9375 2.304688 1.945312 3.398438 2.875 23.816406-6.957032 45.324218-17.71875 65.136718-30.957032 7.652344-34.789062 12.492188-70.195312 14.421876-105.84375 1.210937-22.398437 2.371093-43.226562 3.203124-57.984374-15.882812 3.171874-35.535156 8.253906-60.144531 14.625-75.804687 19.621093-113.707031 29.429687-120.921875 52.507812zm0 0" fill="#fdf385"/><path d="m80.734375 127.746094c0 8.464844-6.863281 15.328125-15.328125 15.328125-8.46875 0-15.332031-6.863281-15.332031-15.328125 0-8.46875 6.863281-15.332032 15.332031-15.332032 8.464844 0 15.328125 6.863282 15.328125 15.332032zm15.328125 45.988281c-8.464844 0-15.328125 6.863281-15.328125 15.328125s6.863281 15.328125 15.328125 15.328125c8.46875 0 15.332031-6.863281 15.332031-15.328125s-6.863281-15.328125-15.332031-15.328125zm45.988281-66.429687c-8.464843 0-15.328125 6.863281-15.328125 15.332031 0 8.464843 6.863282 15.328125 15.328125 15.328125 8.46875 0 15.332031-6.863282 15.332031-15.328125 0-8.46875-6.863281-15.332031-15.332031-15.332031zm56.207031 97.085937c-8.464843 0-15.328124 6.863281-15.328124 15.328125 0 8.46875 6.863281 15.332031 15.328124 15.332031 8.46875 0 15.332032-6.863281 15.332032-15.332031 0-8.464844-6.863282-15.328125-15.332032-15.328125zm81.757813 122.636719c-8.464844 0-15.328125 6.863281-15.328125 15.328125 0 8.464843 6.863281 15.328125 15.328125 15.328125s15.328125-6.863282 15.328125-15.328125c0-8.464844-6.863281-15.328125-15.328125-15.328125zm71.539063 20.4375c-8.46875 0-15.332032 6.863281-15.332032 15.328125 0 8.46875 6.863282 15.332031 15.332032 15.332031 8.464843 0 15.328124-6.863281 15.328124-15.332031 0-8.464844-6.863281-15.328125-15.328124-15.328125zm-91.976563 71.539062c-8.46875 0-15.332031 6.863282-15.332031 15.328125 0 8.464844 6.863281 15.328125 15.332031 15.328125 8.464844 0 15.328125-6.863281 15.328125-15.328125 0-8.464843-6.863281-15.328125-15.328125-15.328125zm91.976563-20.441406c-8.46875 0-15.332032 6.863281-15.332032 15.328125 0 8.46875 6.863282 15.332031 15.332032 15.332031 8.464843 0 15.328124-6.863281 15.328124-15.332031 0-8.464844-6.863281-15.328125-15.328124-15.328125zm10.21875-327.027344c-8.46875 0-15.332032 6.867188-15.332032 15.332032 0 8.464843 6.863282 15.328124 15.332032 15.328124 8.464843 0 15.328124-6.863281 15.328124-15.328124 0-8.464844-6.863281-15.332032-15.328124-15.332032zm81.753906-20.4375c-8.464844 0-15.328125 6.863282-15.328125 15.328125 0 8.46875 6.863281 15.332031 15.328125 15.332031 8.46875 0 15.332031-6.863281 15.332031-15.332031 0-8.464843-6.863281-15.328125-15.332031-15.328125zm20.441406 71.539063c-8.464844 0-15.328125 6.863281-15.328125 15.328125s6.863281 15.328125 15.328125 15.328125 15.328125-6.863281 15.328125-15.328125-6.863281-15.328125-15.328125-15.328125zm-71.539062 51.097656c-8.464844 0-15.328126 6.863281-15.328126 15.328125s6.863282 15.328125 15.328126 15.328125c8.46875 0 15.332031-6.863281 15.332031-15.328125s-6.863281-15.328125-15.332031-15.328125zm0 0" fill="#f1ca50"/><path d="m96.0625 291.257812c0 5.644532-4.574219 10.21875-10.21875 10.21875s-10.21875-4.574218-10.21875-10.21875c0-5.644531 4.574219-10.21875 10.21875-10.21875s10.21875 4.574219 10.21875 10.21875zm15.332031 15.328126c-5.644531 0-10.222656 4.578124-10.222656 10.21875 0 5.644531 4.578125 10.222656 10.222656 10.222656s10.21875-4.578125 10.21875-10.222656c0-5.640626-4.574219-10.21875-10.21875-10.21875zm-40.878906 40.878906c-5.644531 0-10.21875 4.574218-10.21875 10.21875 0 5.644531 4.574219 10.21875 10.21875 10.21875s10.21875-4.574219 10.21875-10.21875c0-5.644532-4.574219-10.21875-10.21875-10.21875zm374.808594-74.796875c-5.535157 1.105469-9.125 6.492187-8.015625 12.023437 1.105468 5.535156 6.492187 9.125 12.023437 8.015625 5.535157-1.105469 9.125-6.492187 8.015625-12.027343-1.105468-5.535157-6.492187-9.121094-12.023437-8.011719zm30.066406 20.035156c-5.535156 1.109375-9.125 6.492187-8.015625 12.027344 1.105469 5.535156 6.492188 9.121093 12.027344 8.015625 5.53125-1.109375 9.121094-6.492188 8.011718-12.027344-1.105468-5.535156-6.488281-9.121094-12.023437-8.015625zm-243.371094-220.96875c-5.535156 1.109375-9.121093 6.492187-8.015625 12.027344 1.109375 5.53125 6.492188 9.121093 12.027344 8.015625 5.535156-1.109375 9.121094-6.492188 8.015625-12.027344-1.109375-5.535156-6.492187-9.125-12.027344-8.015625zm30.660157-30.660156c-5.535157 1.109375-9.125 6.492187-8.015626 12.027343 1.105469 5.535157 6.492188 9.125 12.027344 8.015626 5.53125-1.109376 9.121094-6.492188 8.011719-12.027344-1.105469-5.53125-6.488281-9.121094-12.023437-8.015625zm0 0" fill="#fdf385"/></svg>